<svg width="17" height="17" viewBox="0 0 17 17" fill="none" xmlns="http://www.w3.org/2000/svg">
<rect width="17" height="17" fill="#C0C0C0"/>
<rect width="16" height="16" transform="translate(0.5 0.5)" fill="url(#paint0_linear_0_1)"/>
<g filter="url(#filter0_i_0_1)">
<path d="M8.53589 3.75781L4.19189 7.5546V10.3983V13.242H12.7349V7.5546L8.53589 3.75781Z" fill="url(#paint1_linear_0_1)"/>
</g>
<g filter="url(#filter1_i_0_1)">
<path d="M5.95438 13.3671C4.69778 13.3671 4.18621 12.3936 4.18124 11.3456V8.3109H5.19943V11.1916C5.19943 11.9267 5.55704 12.4184 6.24245 12.4184C6.97753 12.4184 7.44938 11.9962 7.44938 11.0973V8.3109H8.46756V13.2727H7.44938V12.6072C7.08183 13.1336 6.50072 13.3671 5.95438 13.3671ZM10.6913 8.21653C12.0174 8.21653 12.7823 9.03108 12.7823 10.2529V13.2727H11.933L11.8634 12.4979C11.5307 13.079 10.8552 13.3671 10.2343 13.3671C9.21616 13.3671 8.46121 12.786 8.46121 11.7777C8.46121 10.7198 9.30556 10.3473 10.4678 10.3473H11.8485C11.8287 9.49299 11.5654 9.11552 10.6963 9.11552C10.1002 9.11552 9.69297 9.43836 9.43966 9.8506L8.65491 9.28439C9.13172 8.62381 9.7476 8.21653 10.6913 8.21653ZM10.438 12.4929C11.2426 12.4929 11.7442 11.9168 11.8485 11.2463V11.0923H10.5274C9.837 11.0923 9.51416 11.4002 9.51416 11.8075C9.51416 12.2148 9.82707 12.4929 10.438 12.4929Z" fill="url(#paint2_linear_0_1)"/>
</g>
<g filter="url(#filter2_i_0_1)">
<path d="M5.27832 4.56226V6.29981L6.72628 5.07983V4.56226H5.27832Z" fill="url(#paint3_linear_0_1)"/>
</g>
<defs>
<filter id="filter0_i_0_1" x="4.19189" y="3.75781" width="8.76016" height="9.77372" filterUnits="userSpaceOnUse" color-interpolation-filters="sRGB">
<feFlood flood-opacity="0" result="BackgroundImageFix"/>
<feBlend mode="normal" in="SourceGraphic" in2="BackgroundImageFix" result="shape"/>
<feColorMatrix in="SourceAlpha" type="matrix" values="0 0 0 0 0 0 0 0 0 0 0 0 0 0 0 0 0 0 127 0" result="hardAlpha"/>
<feOffset dx="0.217195" dy="0.289593"/>
<feGaussianBlur stdDeviation="0.144796"/>
<feComposite in2="hardAlpha" operator="arithmetic" k2="-1" k3="1"/>
<feColorMatrix type="matrix" values="0 0 0 0 0 0 0 0 0 0 0 0 0 0 0 0 0 0 0.25 0"/>
<feBlend mode="normal" in2="shape" result="effect1_innerShadow_0_1"/>
</filter>
<filter id="filter1_i_0_1" x="4.18115" y="8.21655" width="8.81827" height="5.44023" filterUnits="userSpaceOnUse" color-interpolation-filters="sRGB">
<feFlood flood-opacity="0" result="BackgroundImageFix"/>
<feBlend mode="normal" in="SourceGraphic" in2="BackgroundImageFix" result="shape"/>
<feColorMatrix in="SourceAlpha" type="matrix" values="0 0 0 0 0 0 0 0 0 0 0 0 0 0 0 0 0 0 127 0" result="hardAlpha"/>
<feOffset dx="0.217195" dy="0.289593"/>
<feGaussianBlur stdDeviation="0.144796"/>
<feComposite in2="hardAlpha" operator="arithmetic" k2="-1" k3="1"/>
<feColorMatrix type="matrix" values="0 0 0 0 0 0 0 0 0 0 0 0 0 0 0 0 0 0 0.25 0"/>
<feBlend mode="normal" in2="shape" result="effect1_innerShadow_0_1"/>
</filter>
<filter id="filter2_i_0_1" x="5.27832" y="4.56226" width="1.66495" height="2.02714" filterUnits="userSpaceOnUse" color-interpolation-filters="sRGB">
<feFlood flood-opacity="0" result="BackgroundImageFix"/>
<feBlend mode="normal" in="SourceGraphic" in2="BackgroundImageFix" result="shape"/>
<feColorMatrix in="SourceAlpha" type="matrix" values="0 0 0 0 0 0 0 0 0 0 0 0 0 0 0 0 0 0 127 0" result="hardAlpha"/>
<feOffset dx="0.217195" dy="0.289593"/>
<feGaussianBlur stdDeviation="0.144796"/>
<feComposite in2="hardAlpha" operator="arithmetic" k2="-1" k3="1"/>
<feColorMatrix type="matrix" values="0 0 0 0 0 0 0 0 0 0 0 0 0 0 0 0 0 0 0.25 0"/>
<feBlend mode="normal" in2="shape" result="effect1_innerShadow_0_1"/>
</filter>
<linearGradient id="paint0_linear_0_1" x1="8" y1="0" x2="8" y2="16" gradientUnits="userSpaceOnUse">
<stop stop-color="#D6D6D6"/>
<stop offset="1" stop-color="#F6F2EA"/>
</linearGradient>
<linearGradient id="paint1_linear_0_1" x1="8.46339" y1="3.75781" x2="8.46339" y2="13.242" gradientUnits="userSpaceOnUse">
<stop stop-color="#352C24"/>
<stop offset="1" stop-color="#625449"/>
</linearGradient>
<linearGradient id="paint2_linear_0_1" x1="8.4998" y1="4.27271" x2="8.4998" y2="12.9605" gradientUnits="userSpaceOnUse">
<stop stop-color="#D6D6D6"/>
<stop offset="1" stop-color="#F6F2EA"/>
</linearGradient>
<linearGradient id="paint3_linear_0_1" x1="6.0023" y1="4.56226" x2="6.0023" y2="6.29981" gradientUnits="userSpaceOnUse">
<stop stop-color="#352C24"/>
<stop offset="1" stop-color="#625449"/>
</linearGradient>
</defs>
</svg>
