<svg width="311" height="98" viewBox="0 0 311 98" fill="none" xmlns="http://www.w3.org/2000/svg">
<g filter="url(#filter0_i_713_482)">
<path d="M45.5549 6.09277L5.94189 40.5734V66.3984V92.2233H83.8455V40.5734L45.5549 6.09277Z" fill="url(#paint0_linear_713_482)"/>
</g>
<path d="M21.9666 93.6283C10.5313 93.6283 5.87585 84.7693 5.83065 75.2324V47.6159H15.0964V73.8312C15.0964 80.5206 18.3507 84.9953 24.5882 84.9953C31.2776 84.9953 35.5715 81.1534 35.5715 72.9724V47.6159H44.8372V92.7695H35.5715V86.7129C32.2268 91.504 26.9385 93.6283 21.9666 93.6283ZM65.0737 46.7571C77.1417 46.7571 84.1024 54.1697 84.1024 65.2886V92.7695H76.3734L75.7406 85.7185C72.7123 91.0068 66.5652 93.6283 60.9154 93.6283C51.6496 93.6283 44.7794 88.34 44.7794 79.1647C44.7794 69.5373 52.4632 66.1474 63.0397 66.1474H75.605C75.4242 58.3732 73.0287 54.9381 65.1189 54.9381C59.695 54.9381 55.9887 57.876 53.6836 61.6275L46.5421 56.4749C50.8812 50.4634 56.4859 46.7571 65.0737 46.7571ZM62.7685 85.6733C70.0907 85.6733 74.6558 80.4303 75.605 74.3284V72.9272H63.5821C57.2995 72.9272 54.3615 75.7296 54.3615 79.4359C54.3615 83.1422 57.2091 85.6733 62.7685 85.6733Z" fill="#F6F2EA"/>
<g filter="url(#filter1_i_713_482)">
<path d="M15.8447 13.3994V29.1791L29.0487 18.0997V13.3994H15.8447Z" fill="url(#paint1_linear_713_482)"/>
</g>
<g filter="url(#filter2_d_713_482)">
<path d="M105.516 22.8584V75.4572" stroke="url(#paint2_linear_713_482)" stroke-width="1.31768"/>
</g>
<g filter="url(#filter3_d_713_482)">
<path d="M122.794 29.5807V16.6336H128.084V28.436C128.084 30.0149 128.373 31.2123 128.952 32.028C129.531 32.8175 130.386 33.2122 131.518 33.2122C132.202 33.2122 132.873 33.0806 133.531 32.8175C134.215 32.528 134.834 32.107 135.386 31.5544C135.965 31.0017 136.452 30.3044 136.847 29.4623V16.6336H142.136V31.3965C142.136 31.9491 142.228 32.3438 142.412 32.5806C142.623 32.8175 142.952 32.9622 143.399 33.0149V37.3174C142.873 37.3963 142.426 37.449 142.057 37.4753C141.715 37.5279 141.399 37.5542 141.11 37.5542C140.162 37.5542 139.386 37.3437 138.781 36.9227C138.202 36.4753 137.86 35.87 137.755 35.1069L137.636 33.4491C136.715 34.8438 135.531 35.9095 134.084 36.6463C132.636 37.3569 131.044 37.7121 129.307 37.7121C127.176 37.7121 125.558 37.0279 124.452 35.6595C123.347 34.2648 122.794 32.2386 122.794 29.5807ZM159.787 37.7121C158.182 37.7121 156.761 37.3569 155.524 36.6463C154.313 35.9095 153.366 34.9227 152.682 33.6859V45.7251H147.392V16.6336H152.011V20.1862C152.8 18.9757 153.8 18.0284 155.011 17.3442C156.221 16.6336 157.603 16.2784 159.155 16.2784C160.55 16.2784 161.826 16.5547 162.984 17.1073C164.168 17.6599 165.195 18.4362 166.063 19.4362C166.931 20.4099 167.603 21.5414 168.076 22.8309C168.576 24.094 168.826 25.4624 168.826 26.936C168.826 28.936 168.431 30.7517 167.642 32.3833C166.879 34.0148 165.813 35.3174 164.445 36.2911C163.103 37.2384 161.55 37.7121 159.787 37.7121ZM158.011 33.2122C158.826 33.2122 159.563 33.0412 160.221 32.6991C160.879 32.357 161.445 31.8965 161.918 31.3175C162.418 30.7123 162.787 30.0412 163.024 29.3044C163.287 28.5413 163.418 27.7518 163.418 26.936C163.418 26.0676 163.274 25.265 162.984 24.5282C162.721 23.7914 162.326 23.1467 161.8 22.594C161.274 22.0151 160.655 21.5677 159.945 21.252C159.261 20.9362 158.511 20.7783 157.695 20.7783C157.195 20.7783 156.682 20.8704 156.155 21.0546C155.655 21.2125 155.169 21.4493 154.695 21.7651C154.221 22.0809 153.8 22.4493 153.432 22.8703C153.09 23.2914 152.84 23.7519 152.682 24.2519V29.107C152.998 29.8702 153.419 30.5675 153.945 31.1991C154.498 31.8307 155.129 32.3307 155.84 32.6991C156.55 33.0412 157.274 33.2122 158.011 33.2122ZM184.535 36.2516C184.087 36.4358 183.548 36.6463 182.916 36.8832C182.285 37.12 181.6 37.3042 180.864 37.4358C180.153 37.5937 179.429 37.6726 178.693 37.6726C177.719 37.6726 176.824 37.5016 176.008 37.1595C175.193 36.8174 174.535 36.2779 174.035 35.5411C173.561 34.778 173.324 33.7911 173.324 32.5806V20.6993H170.601V16.6336H173.324V9.92328H178.614V16.6336H182.956V20.6993H178.614V30.8044C178.64 31.5149 178.837 32.028 179.206 32.3438C179.574 32.6596 180.035 32.8175 180.587 32.8175C181.14 32.8175 181.679 32.7254 182.206 32.5412C182.732 32.357 183.153 32.1991 183.469 32.0675L184.535 36.2516ZM196.61 37.7121C194.926 37.7121 193.413 37.4358 192.071 36.8832C190.729 36.3042 189.584 35.5148 188.637 34.5148C187.716 33.5148 187.005 32.3701 186.505 31.0807C186.005 29.7912 185.755 28.436 185.755 27.015C185.755 25.5677 186.005 24.1993 186.505 22.9098C187.005 21.6204 187.716 20.4757 188.637 19.4757C189.584 18.4757 190.729 17.6994 192.071 17.1468C193.413 16.5679 194.926 16.2784 196.61 16.2784C198.295 16.2784 199.795 16.5679 201.11 17.1468C202.452 17.6994 203.597 18.4757 204.544 19.4757C205.492 20.4757 206.202 21.6204 206.676 22.9098C207.176 24.1993 207.426 25.5677 207.426 27.015C207.426 28.436 207.176 29.7912 206.676 31.0807C206.202 32.3701 205.492 33.5148 204.544 34.5148C203.623 35.5148 202.492 36.3042 201.15 36.8832C199.808 37.4358 198.295 37.7121 196.61 37.7121ZM191.203 27.015C191.203 28.2255 191.439 29.3044 191.913 30.2518C192.387 31.1728 193.032 31.8965 193.847 32.4228C194.663 32.9491 195.584 33.2122 196.61 33.2122C197.61 33.2122 198.518 32.9491 199.334 32.4228C200.15 31.8701 200.795 31.1333 201.268 30.2123C201.768 29.2649 202.018 28.186 202.018 26.9755C202.018 25.7913 201.768 24.7256 201.268 23.7782C200.795 22.8309 200.15 22.094 199.334 21.5677C198.518 21.0414 197.61 20.7783 196.61 20.7783C195.584 20.7783 194.663 21.0546 193.847 21.6072C193.032 22.1335 192.387 22.8703 191.913 23.8177C191.439 24.7387 191.203 25.8045 191.203 27.015ZM235.96 16.6336H240.973L232.328 37.3174H227.907L224.433 28.436L221.039 37.3174H216.578L207.973 16.6336H212.947L219.105 32.2649L221.512 25.515L217.92 16.6731H222.302L224.433 22.9888L226.604 16.6731H230.986L227.394 25.515L229.841 32.2649L235.96 16.6336ZM262.638 37.3174H257.349V25.7124C257.349 24.0545 257.059 22.844 256.48 22.0809C255.901 21.3178 255.099 20.9362 254.072 20.9362C253.362 20.9362 252.638 21.1204 251.901 21.4888C251.191 21.8572 250.546 22.3704 249.967 23.0282C249.388 23.6598 248.967 24.3966 248.704 25.2387V37.3174H243.415V16.6336H248.191V20.4625C248.717 19.5678 249.388 18.8178 250.204 18.2126C251.02 17.581 251.954 17.1073 253.007 16.7915C254.085 16.4494 255.217 16.2784 256.401 16.2784C257.691 16.2784 258.743 16.5152 259.559 16.9889C260.401 17.4363 261.033 18.0547 261.454 18.8441C261.901 19.6073 262.204 20.4757 262.362 21.4493C262.546 22.423 262.638 23.4098 262.638 24.4098V37.3174Z" fill="url(#paint3_linear_713_482)"/>
</g>
<g filter="url(#filter4_d_713_482)">
<path d="M121.887 67.0791C121.887 65.7896 122.255 64.6844 122.992 63.7634C123.729 62.816 124.742 62.0924 126.031 61.5924C127.347 61.0661 128.86 60.8029 130.571 60.8029C131.571 60.8029 132.61 60.8819 133.689 61.0397C134.768 61.1976 135.728 61.4345 136.57 61.7503V60.0135C136.57 58.2767 136.057 56.8951 135.031 55.8688C134.005 54.8425 132.584 54.3294 130.768 54.3294C129.663 54.3294 128.571 54.5399 127.492 54.9609C126.439 55.3557 125.334 55.9478 124.176 56.7372L123.15 54.8425C124.492 53.9215 125.808 53.2373 127.097 52.7899C128.386 52.3163 129.702 52.0794 131.044 52.0794C133.571 52.0794 135.57 52.8031 137.044 54.2504C138.518 55.6978 139.255 57.6977 139.255 60.2503V69.7632C139.255 70.1316 139.334 70.408 139.491 70.5922C139.649 70.7501 139.899 70.8422 140.241 70.8685V73C139.952 73.0263 139.702 73.0526 139.491 73.0789C139.281 73.1053 139.123 73.1053 139.018 73.0789C138.36 73.0526 137.86 72.8421 137.518 72.4474C137.176 72.0527 136.992 71.6316 136.965 71.1843L136.926 69.6843C136.005 70.8685 134.807 71.7895 133.334 72.4474C131.86 73.0789 130.36 73.3947 128.834 73.3947C127.518 73.3947 126.321 73.1184 125.242 72.5658C124.189 71.9869 123.36 71.2237 122.755 70.2764C122.176 69.3027 121.887 68.237 121.887 67.0791ZM135.663 68.658C135.952 68.2896 136.176 67.9343 136.334 67.5922C136.492 67.2501 136.57 66.9475 136.57 66.6844V63.6844C135.676 63.3423 134.742 63.0792 133.768 62.895C132.821 62.7108 131.86 62.6187 130.886 62.6187C128.965 62.6187 127.413 63.0002 126.229 63.7634C125.044 64.5265 124.452 65.566 124.452 66.8817C124.452 67.6449 124.65 68.3685 125.044 69.0527C125.439 69.7106 126.018 70.2632 126.781 70.7106C127.544 71.1316 128.439 71.3421 129.465 71.3421C130.755 71.3421 131.952 71.0921 133.057 70.5922C134.189 70.0922 135.057 69.4475 135.663 68.658ZM155.554 73.3947C153.843 73.3947 152.304 72.9474 150.935 72.0527C149.593 71.1579 148.528 70.0527 147.738 68.7369V81.4077H145.054V52.4347H147.462V56.4214C148.278 55.132 149.37 54.0925 150.738 53.3031C152.106 52.4873 153.567 52.0794 155.12 52.0794C156.541 52.0794 157.843 52.3821 159.027 52.9873C160.212 53.5662 161.238 54.3557 162.106 55.3557C162.975 56.3556 163.646 57.5004 164.119 58.7898C164.619 60.0529 164.869 61.3687 164.869 62.7371C164.869 64.6581 164.475 66.4344 163.685 68.0659C162.922 69.6711 161.843 70.9606 160.448 71.9342C159.054 72.9079 157.422 73.3947 155.554 73.3947ZM154.804 71.0264C155.935 71.0264 156.948 70.8027 157.843 70.3553C158.738 69.8817 159.501 69.2501 160.133 68.4606C160.791 67.6712 161.29 66.7896 161.633 65.816C161.975 64.816 162.146 63.7897 162.146 62.7371C162.146 61.6318 161.948 60.5792 161.554 59.5793C161.185 58.5793 160.646 57.6977 159.935 56.9346C159.225 56.1714 158.409 55.5662 157.488 55.1188C156.567 54.6715 155.567 54.4478 154.488 54.4478C153.804 54.4478 153.093 54.5794 152.356 54.8425C151.62 55.1057 150.909 55.4872 150.225 55.9872C149.567 56.4609 149.014 57.0004 148.567 57.6056C148.12 58.2109 147.843 58.8556 147.738 59.5398V65.8554C148.159 66.8291 148.725 67.7106 149.435 68.5001C150.146 69.2632 150.962 69.8817 151.883 70.3553C152.83 70.8027 153.804 71.0264 154.804 71.0264ZM167.758 67.0791C167.758 65.7896 168.127 64.6844 168.864 63.7634C169.6 62.816 170.613 62.0924 171.903 61.5924C173.219 61.0661 174.732 60.8029 176.442 60.8029C177.442 60.8029 178.482 60.8819 179.561 61.0397C180.64 61.1976 181.6 61.4345 182.442 61.7503V60.0135C182.442 58.2767 181.929 56.8951 180.903 55.8688C179.876 54.8425 178.455 54.3294 176.64 54.3294C175.534 54.3294 174.442 54.5399 173.363 54.9609C172.311 55.3557 171.206 55.9478 170.048 56.7372L169.021 54.8425C170.363 53.9215 171.679 53.2373 172.969 52.7899C174.258 52.3163 175.574 52.0794 176.916 52.0794C179.442 52.0794 181.442 52.8031 182.916 54.2504C184.389 55.6978 185.126 57.6977 185.126 60.2503V69.7632C185.126 70.1316 185.205 70.408 185.363 70.5922C185.521 70.7501 185.771 70.8422 186.113 70.8685V73C185.824 73.0263 185.574 73.0526 185.363 73.0789C185.153 73.1053 184.995 73.1053 184.889 73.0789C184.232 73.0526 183.732 72.8421 183.389 72.4474C183.047 72.0527 182.863 71.6316 182.837 71.1843L182.797 69.6843C181.876 70.8685 180.679 71.7895 179.205 72.4474C177.732 73.0789 176.232 73.3947 174.705 73.3947C173.39 73.3947 172.192 73.1184 171.113 72.5658C170.061 71.9869 169.232 71.2237 168.627 70.2764C168.048 69.3027 167.758 68.237 167.758 67.0791ZM181.534 68.658C181.824 68.2896 182.047 67.9343 182.205 67.5922C182.363 67.2501 182.442 66.9475 182.442 66.6844V63.6844C181.547 63.3423 180.613 63.0792 179.64 62.895C178.692 62.7108 177.732 62.6187 176.758 62.6187C174.837 62.6187 173.284 63.0002 172.1 63.7634C170.916 64.5265 170.324 65.566 170.324 66.8817C170.324 67.6449 170.521 68.3685 170.916 69.0527C171.311 69.7106 171.89 70.2632 172.653 70.7106C173.416 71.1316 174.311 71.3421 175.337 71.3421C176.626 71.3421 177.824 71.0921 178.929 70.5922C180.061 70.0922 180.929 69.4475 181.534 68.658ZM201.189 54.803C199.399 54.8557 197.82 55.3557 196.452 56.303C195.11 57.2504 194.162 58.553 193.61 60.2108V73H190.926V52.4347H193.452V57.3688C194.162 55.9214 195.097 54.7504 196.255 53.8557C197.439 52.961 198.689 52.461 200.004 52.3557C200.268 52.3294 200.491 52.3163 200.675 52.3163C200.886 52.3163 201.057 52.3294 201.189 52.3557V54.803ZM214.632 72.0132C214.422 72.0921 214.093 72.2369 213.646 72.4474C213.198 72.6579 212.659 72.8421 212.027 73C211.396 73.1579 210.712 73.2368 209.975 73.2368C209.212 73.2368 208.488 73.0921 207.804 72.8026C207.146 72.5132 206.62 72.079 206.225 71.5C205.83 70.8948 205.633 70.158 205.633 69.2896V54.5662H202.791V52.4347H205.633V45.4875H208.317V52.4347H213.054V54.5662H208.317V68.5396C208.369 69.2764 208.633 69.829 209.106 70.1974C209.606 70.5658 210.172 70.7501 210.804 70.7501C211.54 70.7501 212.211 70.6316 212.817 70.3948C213.422 70.1316 213.79 69.9474 213.922 69.8422L214.632 72.0132ZM248.578 73H245.893V61.5134C245.893 59.1187 245.512 57.3556 244.749 56.2241C243.986 55.0925 242.854 54.5267 241.354 54.5267C239.801 54.5267 238.407 55.0794 237.17 56.1846C235.959 57.2898 235.104 58.7109 234.604 60.4477V73H231.92V61.5134C231.92 59.0924 231.552 57.3293 230.815 56.2241C230.078 55.0925 228.946 54.5267 227.42 54.5267C225.894 54.5267 224.512 55.0662 223.275 56.1451C222.039 57.224 221.17 58.6451 220.67 60.4082V73H217.986V52.4347H220.433V57.0925C221.302 55.4872 222.407 54.2504 223.749 53.382C225.118 52.5136 226.631 52.0794 228.289 52.0794C229.999 52.0794 231.381 52.5663 232.433 53.5399C233.486 54.5136 234.131 55.7899 234.367 57.3688C235.315 55.632 236.446 54.3162 237.762 53.4215C239.104 52.5268 240.617 52.0794 242.301 52.0794C243.459 52.0794 244.433 52.29 245.222 52.711C246.038 53.132 246.683 53.7373 247.157 54.5267C247.657 55.2899 248.012 56.2241 248.222 57.3293C248.459 58.4082 248.578 59.6187 248.578 60.9608V73ZM263.141 73.3947C261.667 73.3947 260.299 73.1184 259.036 72.5658C257.773 71.9869 256.68 71.2106 255.759 70.2369C254.838 69.2369 254.115 68.0922 253.588 66.8028C253.088 65.5133 252.838 64.1318 252.838 62.6581C252.838 60.7371 253.273 58.974 254.141 57.3688C255.036 55.7636 256.259 54.4873 257.812 53.5399C259.365 52.5663 261.128 52.0794 263.101 52.0794C265.128 52.0794 266.891 52.5663 268.391 53.5399C269.917 54.5136 271.114 55.803 271.983 57.4083C272.851 58.9872 273.285 60.724 273.285 62.6187C273.285 62.8292 273.285 63.0397 273.285 63.2502C273.285 63.4344 273.272 63.5792 273.246 63.6844H255.641C255.773 65.1581 256.18 66.4738 256.865 67.6317C257.575 68.7633 258.483 69.6711 259.588 70.3553C260.72 71.0132 261.943 71.3421 263.259 71.3421C264.601 71.3421 265.864 71 267.049 70.3159C268.259 69.6317 269.101 68.7369 269.575 67.6317L271.904 68.2633C271.483 69.2369 270.838 70.1185 269.97 70.9079C269.101 71.6974 268.075 72.3158 266.891 72.7632C265.733 73.1842 264.483 73.3947 263.141 73.3947ZM255.562 61.7503H270.759C270.654 60.2503 270.246 58.9345 269.535 57.803C268.851 56.6714 267.943 55.7899 266.812 55.1583C265.707 54.5004 264.483 54.1715 263.141 54.1715C261.799 54.1715 260.575 54.5004 259.47 55.1583C258.365 55.7899 257.457 56.6846 256.746 57.8425C256.062 58.974 255.667 60.2766 255.562 61.7503ZM294.716 73H292.032V61.5134C292.032 59.0924 291.676 57.3293 290.966 56.2241C290.255 55.0925 289.137 54.5267 287.611 54.5267C286.558 54.5267 285.519 54.7899 284.492 55.3162C283.466 55.8162 282.558 56.5135 281.769 57.4083C281.005 58.2767 280.453 59.2766 280.111 60.4082V73H277.427V52.4347H279.874V57.0925C280.427 56.0925 281.15 55.2241 282.045 54.4873C282.94 53.7241 283.953 53.132 285.084 52.711C286.216 52.29 287.387 52.0794 288.597 52.0794C289.729 52.0794 290.689 52.29 291.479 52.711C292.268 53.132 292.9 53.7373 293.374 54.5267C293.847 55.2899 294.189 56.2241 294.4 57.3293C294.61 58.4082 294.716 59.6187 294.716 60.9608V73ZM310.115 72.0132C309.904 72.0921 309.576 72.2369 309.128 72.4474C308.681 72.6579 308.141 72.8421 307.51 73C306.878 73.1579 306.194 73.2368 305.457 73.2368C304.694 73.2368 303.97 73.0921 303.286 72.8026C302.628 72.5132 302.102 72.079 301.707 71.5C301.313 70.8948 301.115 70.158 301.115 69.2896V54.5662H298.273V52.4347H301.115V45.4875H303.799V52.4347H308.536V54.5662H303.799V68.5396C303.852 69.2764 304.115 69.829 304.589 70.1974C305.089 70.5658 305.655 70.7501 306.286 70.7501C307.023 70.7501 307.694 70.6316 308.299 70.3948C308.904 70.1316 309.273 69.9474 309.404 69.8422L310.115 72.0132Z" fill="url(#paint4_linear_713_482)"/>
</g>
<path d="M125.177 95.1384C124.559 95.1384 124.006 94.9769 123.517 94.6541C123.038 94.3221 122.65 93.9208 122.355 93.4504V97.947H121.663V87.8055H122.3V89.2444C122.595 88.7832 122.987 88.4096 123.476 88.1237C123.965 87.8285 124.481 87.6809 125.025 87.6809C125.533 87.6809 125.994 87.787 126.409 87.9992C126.824 88.2021 127.184 88.4834 127.488 88.8431C127.802 89.1936 128.041 89.5903 128.207 90.033C128.383 90.4757 128.47 90.9369 128.47 91.4166C128.47 92.0807 128.332 92.6987 128.055 93.2705C127.779 93.8332 127.391 94.2852 126.893 94.6264C126.404 94.9677 125.832 95.1384 125.177 95.1384ZM125.011 94.5158C125.436 94.5158 125.814 94.4281 126.146 94.2529C126.487 94.0776 126.778 93.8424 127.018 93.5473C127.257 93.2521 127.442 92.92 127.571 92.5511C127.7 92.1821 127.765 91.804 127.765 91.4166C127.765 91.0015 127.691 90.6095 127.543 90.2405C127.396 89.8624 127.188 89.5303 126.921 89.2444C126.662 88.9584 126.358 88.7324 126.008 88.5664C125.666 88.3912 125.293 88.3035 124.887 88.3035C124.638 88.3035 124.37 88.3543 124.084 88.4557C123.808 88.5572 123.54 88.7002 123.282 88.8846C123.033 89.0691 122.825 89.2813 122.659 89.5211C122.493 89.7517 122.392 89.9915 122.355 90.2405V92.6064C122.521 92.9569 122.733 93.2798 122.991 93.5749C123.259 93.8609 123.568 94.0915 123.918 94.2667C124.269 94.4327 124.633 94.5158 125.011 94.5158ZM133.538 88.4281C132.893 88.4465 132.325 88.6402 131.837 89.0092C131.357 89.3689 131.02 89.867 130.827 90.5034V95H130.135V87.8055H130.799V89.5764C131.048 89.0691 131.38 88.6587 131.795 88.345C132.21 88.0222 132.648 87.8377 133.109 87.7916C133.202 87.7824 133.285 87.7778 133.359 87.7778C133.432 87.7778 133.492 87.7778 133.538 87.7778V88.4281ZM137.583 95.1384C137.075 95.1384 136.605 95.0415 136.171 94.8478C135.747 94.6541 135.378 94.3866 135.065 94.0453C134.751 93.6948 134.507 93.2936 134.331 92.8416C134.156 92.3897 134.068 91.9146 134.068 91.4166C134.068 90.9093 134.156 90.4342 134.331 89.9915C134.507 89.5395 134.751 89.1429 135.065 88.8016C135.387 88.4511 135.761 88.179 136.185 87.9853C136.619 87.7824 137.085 87.6809 137.583 87.6809C138.081 87.6809 138.542 87.7824 138.966 87.9853C139.391 88.179 139.764 88.4511 140.087 88.8016C140.41 89.1429 140.659 89.5395 140.834 89.9915C141.009 90.4342 141.097 90.9093 141.097 91.4166C141.097 91.9146 141.009 92.3897 140.834 92.8416C140.659 93.2936 140.41 93.6948 140.087 94.0453C139.773 94.3866 139.4 94.6541 138.966 94.8478C138.542 95.0415 138.081 95.1384 137.583 95.1384ZM134.76 91.4442C134.76 92.0069 134.885 92.5234 135.134 92.9938C135.392 93.455 135.733 93.824 136.158 94.1007C136.582 94.3774 137.052 94.5158 137.569 94.5158C138.085 94.5158 138.556 94.3774 138.98 94.1007C139.414 93.8147 139.755 93.4366 140.004 92.9662C140.262 92.4865 140.391 91.9654 140.391 91.4027C140.391 90.8401 140.262 90.3235 140.004 89.8531C139.755 89.3827 139.414 89.0092 138.98 88.7324C138.556 88.4465 138.09 88.3035 137.583 88.3035C137.066 88.3035 136.596 88.4465 136.171 88.7324C135.747 89.0184 135.406 89.3966 135.148 89.867C134.889 90.3374 134.76 90.8631 134.76 91.4442ZM146.269 95.1384C145.651 95.1384 145.097 94.9769 144.608 94.6541C144.129 94.3221 143.741 93.9208 143.446 93.4504V97.947H142.754V87.8055H143.391V89.2444C143.686 88.7832 144.078 88.4096 144.567 88.1237C145.056 87.8285 145.572 87.6809 146.117 87.6809C146.624 87.6809 147.085 87.787 147.5 87.9992C147.915 88.2021 148.275 88.4834 148.579 88.8431C148.893 89.1936 149.133 89.5903 149.299 90.033C149.474 90.4757 149.562 90.9369 149.562 91.4166C149.562 92.0807 149.423 92.6987 149.147 93.2705C148.87 93.8332 148.482 94.2852 147.984 94.6264C147.495 94.9677 146.924 95.1384 146.269 95.1384ZM146.103 94.5158C146.527 94.5158 146.905 94.4281 147.237 94.2529C147.578 94.0776 147.869 93.8424 148.109 93.5473C148.349 93.2521 148.533 92.92 148.662 92.5511C148.791 92.1821 148.856 91.804 148.856 91.4166C148.856 91.0015 148.782 90.6095 148.635 90.2405C148.487 89.8624 148.28 89.5303 148.012 89.2444C147.754 88.9584 147.449 88.7324 147.099 88.5664C146.758 88.3912 146.384 88.3035 145.978 88.3035C145.729 88.3035 145.462 88.3543 145.176 88.4557C144.899 88.5572 144.631 88.7002 144.373 88.8846C144.124 89.0691 143.917 89.2813 143.751 89.5211C143.585 89.7517 143.483 89.9915 143.446 90.2405V92.6064C143.612 92.9569 143.824 93.2798 144.083 93.5749C144.35 93.8609 144.659 94.0915 145.01 94.2667C145.36 94.4327 145.725 94.5158 146.103 94.5158ZM154.284 95.1384C153.776 95.1384 153.306 95.0415 152.873 94.8478C152.439 94.6449 152.061 94.3728 151.738 94.0315C151.424 93.681 151.175 93.2798 150.991 92.8278C150.816 92.3666 150.728 91.8824 150.728 91.3751C150.728 90.6925 150.88 90.0745 151.185 89.5211C151.489 88.9676 151.909 88.5249 152.444 88.1928C152.979 87.8516 153.578 87.6809 154.242 87.6809C154.925 87.6809 155.529 87.8516 156.055 88.1928C156.581 88.5341 156.996 88.9861 157.3 89.5487C157.614 90.1022 157.77 90.7109 157.77 91.3751C157.77 91.4304 157.77 91.4857 157.77 91.5411C157.77 91.5964 157.766 91.6425 157.757 91.6794H151.447C151.484 92.2236 151.637 92.7171 151.904 93.1599C152.172 93.6026 152.513 93.9531 152.928 94.2114C153.352 94.4604 153.813 94.5849 154.311 94.5849C154.81 94.5849 155.28 94.4558 155.723 94.1975C156.165 93.9393 156.474 93.6072 156.65 93.2014L157.258 93.3674C157.12 93.7087 156.899 94.0131 156.594 94.2805C156.299 94.548 155.949 94.7602 155.543 94.917C155.146 95.0646 154.727 95.1384 154.284 95.1384ZM151.42 91.1398H157.106C157.069 90.5772 156.922 90.0791 156.664 89.6456C156.405 89.2121 156.064 88.8708 155.64 88.6218C155.225 88.3727 154.763 88.2482 154.256 88.2482C153.749 88.2482 153.288 88.3727 152.873 88.6218C152.457 88.8708 152.121 89.2121 151.863 89.6456C151.604 90.0791 151.457 90.5772 151.42 91.1398ZM162.696 88.4281C162.05 88.4465 161.483 88.6402 160.994 89.0092C160.515 89.3689 160.178 89.867 159.984 90.5034V95H159.292V87.8055H159.957V89.5764C160.206 89.0691 160.538 88.6587 160.953 88.345C161.368 88.0222 161.806 87.8377 162.267 87.7916C162.359 87.7824 162.442 87.7778 162.516 87.7778C162.59 87.7778 162.65 87.7778 162.696 87.7778V88.4281ZM167.218 94.6541C167.172 94.6726 167.079 94.7187 166.941 94.7925C166.803 94.8663 166.627 94.9354 166.415 95C166.203 95.0553 165.968 95.083 165.71 95.083C165.461 95.083 165.225 95.0369 165.004 94.9447C164.792 94.8432 164.621 94.6956 164.492 94.5019C164.363 94.3082 164.298 94.073 164.298 93.7963V88.3727H163.288V87.8055H164.298V85.3427H164.99V87.8055H166.664V88.3727H164.99V93.6303C165.009 93.8978 165.106 94.1007 165.281 94.239C165.456 94.3682 165.659 94.4327 165.89 94.4327C166.175 94.4327 166.425 94.3866 166.637 94.2944C166.849 94.1929 166.973 94.1284 167.01 94.1007L167.218 94.6541ZM168.44 95V87.8055H169.131V95H168.44ZM168.44 86.1728V84.9H169.131V86.1728H168.44ZM174.362 95.1384C173.854 95.1384 173.384 95.0415 172.95 94.8478C172.517 94.6449 172.139 94.3728 171.816 94.0315C171.502 93.681 171.253 93.2798 171.069 92.8278C170.894 92.3666 170.806 91.8824 170.806 91.3751C170.806 90.6925 170.958 90.0745 171.263 89.5211C171.567 88.9676 171.987 88.5249 172.522 88.1928C173.057 87.8516 173.656 87.6809 174.32 87.6809C175.003 87.6809 175.607 87.8516 176.133 88.1928C176.658 88.5341 177.074 88.9861 177.378 89.5487C177.692 90.1022 177.848 90.7109 177.848 91.3751C177.848 91.4304 177.848 91.4857 177.848 91.5411C177.848 91.5964 177.844 91.6425 177.834 91.6794H171.525C171.562 92.2236 171.714 92.7171 171.982 93.1599C172.249 93.6026 172.591 93.9531 173.006 94.2114C173.43 94.4604 173.891 94.5849 174.389 94.5849C174.887 94.5849 175.358 94.4558 175.801 94.1975C176.243 93.9393 176.552 93.6072 176.728 93.2014L177.336 93.3674C177.198 93.7087 176.977 94.0131 176.672 94.2805C176.377 94.548 176.027 94.7602 175.621 94.917C175.224 95.0646 174.804 95.1384 174.362 95.1384ZM171.498 91.1398H177.184C177.147 90.5772 177 90.0791 176.741 89.6456C176.483 89.2121 176.142 88.8708 175.718 88.6218C175.303 88.3727 174.841 88.2482 174.334 88.2482C173.827 88.2482 173.366 88.3727 172.95 88.6218C172.535 88.8708 172.199 89.2121 171.94 89.6456C171.682 90.0791 171.535 90.5772 171.498 91.1398ZM181.639 95.1384C181.068 95.1384 180.537 95.0415 180.048 94.8478C179.559 94.6541 179.131 94.3589 178.762 93.9623L179.08 93.4781C179.476 93.8563 179.878 94.133 180.283 94.3082C180.689 94.4742 181.132 94.5573 181.612 94.5573C182.23 94.5573 182.728 94.4281 183.106 94.1699C183.493 93.9116 183.687 93.5519 183.687 93.0907C183.687 92.7771 183.595 92.5373 183.41 92.3712C183.235 92.196 182.977 92.0576 182.636 91.9562C182.304 91.8455 181.898 91.7302 181.418 91.6103C180.929 91.4811 180.514 91.3474 180.173 91.209C179.841 91.0707 179.592 90.8908 179.426 90.6694C179.26 90.4481 179.177 90.1483 179.177 89.7701C179.177 89.2997 179.292 88.9123 179.523 88.6079C179.762 88.2943 180.081 88.0637 180.477 87.9161C180.883 87.7593 181.33 87.6809 181.819 87.6809C182.382 87.6809 182.871 87.7732 183.286 87.9576C183.71 88.1421 184.033 88.3865 184.254 88.6909L183.881 89.1337C183.65 88.8385 183.35 88.6218 182.981 88.4834C182.613 88.3358 182.207 88.262 181.764 88.262C181.432 88.262 181.118 88.3081 180.823 88.4004C180.528 88.4926 180.288 88.6448 180.104 88.857C179.928 89.0599 179.841 89.3366 179.841 89.6871C179.841 89.9638 179.905 90.1806 180.034 90.3374C180.173 90.4942 180.376 90.6233 180.643 90.7248C180.911 90.817 181.243 90.9185 181.639 91.0292C182.202 91.1675 182.686 91.3105 183.092 91.4581C183.498 91.6056 183.812 91.7993 184.033 92.0392C184.254 92.2698 184.365 92.5972 184.365 93.0215C184.365 93.6764 184.116 94.1929 183.618 94.5711C183.12 94.9493 182.46 95.1384 181.639 95.1384Z" fill="url(#paint5_linear_713_482)"/>
<defs>
<filter id="filter0_i_713_482" x="5.94189" y="6.09277" width="79.8803" height="88.7662" filterUnits="userSpaceOnUse" color-interpolation-filters="sRGB">
<feFlood flood-opacity="0" result="BackgroundImageFix"/>
<feBlend mode="normal" in="SourceGraphic" in2="BackgroundImageFix" result="shape"/>
<feColorMatrix in="SourceAlpha" type="matrix" values="0 0 0 0 0 0 0 0 0 0 0 0 0 0 0 0 0 0 127 0" result="hardAlpha"/>
<feOffset dx="1.97652" dy="2.63537"/>
<feGaussianBlur stdDeviation="1.31768"/>
<feComposite in2="hardAlpha" operator="arithmetic" k2="-1" k3="1"/>
<feColorMatrix type="matrix" values="0 0 0 0 0 0 0 0 0 0 0 0 0 0 0 0 0 0 0.25 0"/>
<feBlend mode="normal" in2="shape" result="effect1_innerShadow_713_482"/>
</filter>
<filter id="filter1_i_713_482" x="15.8447" y="13.3994" width="15.1806" height="18.4147" filterUnits="userSpaceOnUse" color-interpolation-filters="sRGB">
<feFlood flood-opacity="0" result="BackgroundImageFix"/>
<feBlend mode="normal" in="SourceGraphic" in2="BackgroundImageFix" result="shape"/>
<feColorMatrix in="SourceAlpha" type="matrix" values="0 0 0 0 0 0 0 0 0 0 0 0 0 0 0 0 0 0 127 0" result="hardAlpha"/>
<feOffset dx="1.97652" dy="2.63537"/>
<feGaussianBlur stdDeviation="1.31768"/>
<feComposite in2="hardAlpha" operator="arithmetic" k2="-1" k3="1"/>
<feColorMatrix type="matrix" values="0 0 0 0 0 0 0 0 0 0 0 0 0 0 0 0 0 0 0.25 0"/>
<feBlend mode="normal" in2="shape" result="effect1_innerShadow_713_482"/>
</filter>
<filter id="filter2_d_713_482" x="104.528" y="22.8584" width="1.97622" height="53.5869" filterUnits="userSpaceOnUse" color-interpolation-filters="sRGB">
<feFlood flood-opacity="0" result="BackgroundImageFix"/>
<feColorMatrix in="SourceAlpha" type="matrix" values="0 0 0 0 0 0 0 0 0 0 0 0 0 0 0 0 0 0 127 0" result="hardAlpha"/>
<feOffset dy="0.658841"/>
<feGaussianBlur stdDeviation="0.16471"/>
<feComposite in2="hardAlpha" operator="out"/>
<feColorMatrix type="matrix" values="0 0 0 0 0 0 0 0 0 0 0 0 0 0 0 0 0 0 0.25 0"/>
<feBlend mode="normal" in2="BackgroundImageFix" result="effect1_dropShadow_713_482"/>
<feBlend mode="normal" in="SourceGraphic" in2="effect1_dropShadow_713_482" result="shape"/>
</filter>
<filter id="filter3_d_713_482" x="122.465" y="9.92285" width="140.502" height="36.79" filterUnits="userSpaceOnUse" color-interpolation-filters="sRGB">
<feFlood flood-opacity="0" result="BackgroundImageFix"/>
<feColorMatrix in="SourceAlpha" type="matrix" values="0 0 0 0 0 0 0 0 0 0 0 0 0 0 0 0 0 0 127 0" result="hardAlpha"/>
<feOffset dy="0.658841"/>
<feGaussianBlur stdDeviation="0.16471"/>
<feComposite in2="hardAlpha" operator="out"/>
<feColorMatrix type="matrix" values="0 0 0 0 0 0 0 0 0 0 0 0 0 0 0 0 0 0 0.25 0"/>
<feBlend mode="normal" in2="BackgroundImageFix" result="effect1_dropShadow_713_482"/>
<feBlend mode="normal" in="SourceGraphic" in2="effect1_dropShadow_713_482" result="shape"/>
</filter>
<filter id="filter4_d_713_482" x="121.557" y="45.4873" width="188.887" height="36.9082" filterUnits="userSpaceOnUse" color-interpolation-filters="sRGB">
<feFlood flood-opacity="0" result="BackgroundImageFix"/>
<feColorMatrix in="SourceAlpha" type="matrix" values="0 0 0 0 0 0 0 0 0 0 0 0 0 0 0 0 0 0 127 0" result="hardAlpha"/>
<feOffset dy="0.658841"/>
<feGaussianBlur stdDeviation="0.16471"/>
<feComposite in2="hardAlpha" operator="out"/>
<feColorMatrix type="matrix" values="0 0 0 0 0 0 0 0 0 0 0 0 0 0 0 0 0 0 0.25 0"/>
<feBlend mode="normal" in2="BackgroundImageFix" result="effect1_dropShadow_713_482"/>
<feBlend mode="normal" in="SourceGraphic" in2="effect1_dropShadow_713_482" result="shape"/>
</filter>
<linearGradient id="paint0_linear_713_482" x1="44.8937" y1="6.09277" x2="44.8937" y2="92.2233" gradientUnits="userSpaceOnUse">
<stop stop-color="#352C24"/>
<stop offset="1" stop-color="#625449"/>
</linearGradient>
<linearGradient id="paint1_linear_713_482" x1="22.4467" y1="13.3994" x2="22.4467" y2="29.1791" gradientUnits="userSpaceOnUse">
<stop stop-color="#352C24"/>
<stop offset="1" stop-color="#625449"/>
</linearGradient>
<linearGradient id="paint2_linear_713_482" x1="106.016" y1="22.8584" x2="106.016" y2="75.4572" gradientUnits="userSpaceOnUse">
<stop stop-color="#352C24"/>
<stop offset="1" stop-color="#625449"/>
</linearGradient>
<linearGradient id="paint3_linear_713_482" x1="193.084" y1="0.317383" x2="193.084" y2="46.3174" gradientUnits="userSpaceOnUse">
<stop stop-color="#352C24"/>
<stop offset="1" stop-color="#625449"/>
</linearGradient>
<linearGradient id="paint4_linear_713_482" x1="215.584" y1="36" x2="215.584" y2="82" gradientUnits="userSpaceOnUse">
<stop stop-color="#352C24"/>
<stop offset="1" stop-color="#625449"/>
</linearGradient>
<linearGradient id="paint5_linear_713_482" x1="153.084" y1="82" x2="153.084" y2="98" gradientUnits="userSpaceOnUse">
<stop stop-color="#352C24"/>
<stop offset="1" stop-color="#625449"/>
</linearGradient>
</defs>
</svg>
